<svg id="Layer_1" data-name="Layer 1" xmlns="http://www.w3.org/2000/svg" viewBox="0 0 500 500" width="500" height="500" class="illustration"><defs><style>.cls-1{fill:#0086f4;}.cls-2{fill:#0099f5;}.cls-3{fill:#f9bb0d;}.cls-4{fill:#ffd44d;}.cls-5{fill:#db2868;}.cls-6{fill:#f0457d;}.cls-7{fill:#c3c7c9;}</style></defs><title>Planning and Organization calendars</title><rect class="cls-1" x="28.83" y="201.88" width="124.17" height="95.57" rx="3"></rect><rect class="cls-2" x="28.83" y="201.88" width="109.52" height="85.1" rx="3"></rect><rect class="cls-3" x="187.12" y="202.64" width="124.17" height="95.57" rx="3"></rect><rect class="cls-4" x="187.12" y="202.64" width="109.52" height="85.1" rx="3"></rect><rect class="cls-5" x="349.58" y="202.39" width="124.17" height="95.57" rx="3"></rect><rect class="cls-6" x="349.58" y="202.39" width="109.52" height="85.1" rx="3"></rect><path class="cls-7" d="M258.19,179.5a3.49,3.49,0,0,1-3.24-2.17,87,87,0,0,0-160.9,0,3.5,3.5,0,1,1-6.47-2.66,94,94,0,0,1,173.84,0,3.49,3.49,0,0,1-3.23,4.83Z"></path><path class="cls-7" d="M261,184.5a3.3,3.3,0,0,1-.69-.07l-15-3a3.5,3.5,0,0,1,1.38-6.86l11.83,2.36L261.63,166a3.5,3.5,0,1,1,6.74,1.92l-4,14A3.5,3.5,0,0,1,261,184.5Z"></path><path class="cls-7" d="M410.54,321.83a3.49,3.49,0,0,0-3.23,2.17,87,87,0,0,1-160.9,0,3.5,3.5,0,0,0-6.47,2.67,94,94,0,0,0,173.84,0,3.51,3.51,0,0,0-1.9-4.57A3.34,3.34,0,0,0,410.54,321.83Z"></path><path class="cls-7" d="M413.36,316.83a3.23,3.23,0,0,0-.69.07l-15,3a3.5,3.5,0,1,0,1.37,6.86l11.84-2.36L414,335.29a3.5,3.5,0,1,0,6.73-1.92l-4-14A3.5,3.5,0,0,0,413.36,316.83Z"></path></svg>